<svg xmlns="http://www.w3.org/2000/svg" xmlns:xlink="http://www.w3.org/1999/xlink" width="1366" zoomAndPan="magnify" viewBox="0 0 1024.5 257.25" height="343" preserveAspectRatio="xMidYMid meet" version="1.2"><defs><clipPath id="0fa9c384ef"><path d="M 1.238281 0 L 1022.761719 0 L 1022.761719 256.503906 L 1.238281 256.503906 Z M 1.238281 0 "/></clipPath></defs><g id="bf6ddf9f40"><g clip-rule="nonzero" clip-path="url(#0fa9c384ef)"><path style=" stroke:none;fill-rule:nonzero;fill:#ffffff;fill-opacity:1;" d="M 1.238281 0 L 1022.761719 0 L 1022.761719 256.503906 L 1.238281 256.503906 Z M 1.238281 0 "/><path style=" stroke:none;fill-rule:nonzero;fill:#ffffff;fill-opacity:1;" d="M 1.238281 0 L 1022.761719 0 L 1022.761719 256.503906 L 1.238281 256.503906 Z M 1.238281 0 "/><path style=" stroke:none;fill-rule:nonzero;fill:#0b0b0b;fill-opacity:1;" d="M -118.734375 0 L 1142.839844 0 L 1142.839844 256.5 L -118.734375 256.5 Z M -118.734375 0 "/></g><path style=" stroke:none;fill-rule:nonzero;fill:#efe8e0;fill-opacity:1;" d="M 115.359375 24.53125 L 116.058594 25.929688 C 117.679688 26.3125 117.679688 26.3125 119.609375 26.542969 C 125.949219 27.621094 129.945312 30.402344 134.910156 34.410156 C 136.382812 35.742188 136.382812 35.742188 137.785156 37.84375 C 139.523438 38.558594 139.523438 38.558594 141.511719 39.117188 C 144.042969 39.988281 145.957031 40.703125 147.773438 42.707031 L 149 44.851562 C 148.957031 46.738281 148.957031 46.738281 148.300781 48.359375 L 146.898438 50.460938 C 146.527344 51.824219 146.527344 51.824219 146.371094 53.261719 L 146.164062 54.710938 L 146.195312 56.066406 L 147.597656 58.167969 L 148.492188 56.8125 L 149.65625 55.058594 L 150.816406 53.308594 C 151.804688 51.863281 151.804688 51.863281 152.503906 51.160156 C 153.488281 51.097656 154.476562 51.070312 155.460938 51.078125 L 157.394531 51.074219 L 159.53125 51.082031 L 161.769531 51.082031 C 164.222656 51.082031 166.675781 51.085938 169.132812 51.09375 L 174.21875 51.09375 C 178.695312 51.097656 183.167969 51.105469 187.640625 51.113281 C 192.203125 51.117188 196.765625 51.125 201.324219 51.125 C 210.28125 51.132812 219.242188 51.144531 228.199219 51.160156 C 228.21875 53.367188 228.230469 55.570312 228.242188 57.773438 L 228.261719 59.679688 L 228.265625 61.496094 L 228.277344 63.175781 L 228.199219 64.476562 L 227.496094 65.175781 C 226.457031 65.226562 225.414062 65.242188 224.375 65.222656 L 222.277344 65.203125 L 219.921875 65.175781 C 211.019531 65.125 202.136719 65.300781 193.242188 65.527344 C 181.296875 65.828125 169.363281 65.976562 157.410156 65.878906 C 156.492188 68.132812 155.714844 70.292969 155.175781 72.667969 L 154.796875 74.296875 L 154.605469 75.691406 L 155.308594 77.089844 L 228.898438 77.792969 L 228.898438 91.808594 C 222.308594 91.953125 215.71875 92.085938 209.125 92.210938 C 198.167969 92.414062 187.210938 92.539062 176.253906 92.53125 L 174.671875 92.53125 C 169.546875 92.527344 164.421875 92.511719 159.296875 92.488281 C 157.847656 92.484375 156.402344 92.476562 154.957031 92.472656 C 153.183594 92.46875 151.410156 92.460938 149.636719 92.449219 L 147.261719 92.441406 L 145.191406 92.429688 C 143.523438 92.503906 142.15625 92.648438 140.589844 93.210938 C 139.191406 95.382812 138.386719 97.710938 137.785156 100.21875 C 138.128906 102.660156 138.128906 102.660156 139.1875 104.421875 L 139.890625 105.125 C 141.042969 105.199219 142.199219 105.226562 143.351562 105.234375 L 145.625 105.253906 L 148.140625 105.269531 L 150.769531 105.289062 C 153.15625 105.308594 155.546875 105.324219 157.933594 105.335938 C 160.425781 105.351562 162.917969 105.371094 165.410156 105.390625 C 170.136719 105.425781 174.859375 105.457031 179.582031 105.484375 C 184.960938 105.523438 190.335938 105.558594 195.710938 105.597656 C 206.773438 105.679688 217.835938 105.753906 228.898438 105.824219 C 228.921875 108.144531 228.933594 110.46875 228.945312 112.789062 L 228.960938 114.796875 L 228.96875 116.707031 L 228.980469 118.476562 L 228.898438 119.839844 L 228.199219 120.542969 C 226.730469 120.613281 225.257812 120.628906 223.785156 120.632812 L 222.375 120.632812 C 220.800781 120.636719 219.226562 120.632812 217.652344 120.632812 L 214.285156 120.636719 C 211.226562 120.640625 208.164062 120.640625 205.105469 120.636719 C 201.910156 120.632812 198.714844 120.636719 195.519531 120.636719 C 190.148438 120.636719 184.78125 120.636719 179.414062 120.632812 C 173.199219 120.628906 166.988281 120.628906 160.773438 120.632812 C 155.445312 120.636719 150.121094 120.636719 144.792969 120.636719 C 141.609375 120.636719 138.425781 120.636719 135.242188 120.636719 C 132.246094 120.640625 129.253906 120.636719 126.257812 120.632812 C 125.15625 120.632812 124.054688 120.632812 122.953125 120.636719 C 121.457031 120.636719 119.957031 120.636719 118.457031 120.632812 L 115.910156 120.628906 C 113.957031 120.542969 113.957031 120.542969 112.554688 119.839844 C 112.742188 115.605469 114.308594 112.71875 116.429688 109.082031 C 117.488281 107.269531 117.488281 107.269531 118.183594 105.410156 C 118.855469 103.738281 119.632812 102.4375 120.660156 100.964844 C 122.652344 98.046875 124.578125 95.089844 126.484375 92.117188 L 127.347656 90.773438 L 129.375 87.601562 C 126.949219 87.84375 124.679688 88.222656 122.367188 89.003906 C 120.964844 90.128906 119.886719 91.28125 118.765625 92.679688 C 116.582031 94.738281 113.972656 95.660156 111.105469 96.375 C 109.621094 96.679688 108.136719 96.945312 106.640625 97.195312 L 105.085938 97.472656 C 103.839844 97.691406 102.589844 97.90625 101.339844 98.117188 L 101.339844 99.515625 C 96.132812 101.820312 96.132812 101.820312 93.632812 102.320312 L 93.804688 103.898438 L 93.632812 105.824219 L 92.445312 106.964844 C 90.195312 109.277344 88.777344 111.925781 87.191406 114.71875 C 86.570312 115.800781 85.945312 116.882812 85.324219 117.964844 L 84.496094 119.414062 C 83.820312 120.542969 83.820312 120.542969 83.117188 121.242188 C 81.246094 121.339844 79.386719 121.273438 77.511719 121.242188 C 76.671875 119.5625 76.730469 118.515625 76.742188 116.636719 L 76.746094 114.925781 L 76.765625 112.746094 L 76.808594 105.824219 L 91.527344 105.125 L 76.808594 104.421875 C 76.089844 102.261719 76.015625 100.730469 76.023438 98.464844 L 76.015625 96.429688 C 76.109375 94.613281 76.109375 94.613281 76.808594 92.507812 C 76.859375 91.480469 76.871094 90.445312 76.855469 89.414062 L 76.835938 87.625 L 76.808594 85.765625 C 76.792969 84.542969 76.777344 83.320312 76.765625 82.101562 L 76.742188 80.460938 L 76.808594 79.195312 L 77.511719 78.492188 C 79.429688 78.429688 81.332031 78.414062 83.25 78.425781 L 84.992188 78.425781 C 86.835938 78.429688 88.679688 78.441406 90.519531 78.449219 C 91.765625 78.453125 93.011719 78.457031 94.257812 78.457031 C 97.320312 78.464844 100.382812 78.476562 103.441406 78.492188 L 103.441406 77.089844 L 101.472656 77.265625 L 99.238281 77.089844 C 97.96875 75.996094 97.96875 75.996094 97.136719 74.289062 C 96.652344 71.660156 96.652344 71.660156 96.433594 69.382812 L 95.03125 69.382812 L 95.03125 67.980469 L 76.808594 67.28125 L 76.808594 51.863281 L 82.417969 51.160156 L 82.417969 50.460938 L 86.621094 49.757812 L 86.621094 48.359375 L 88.023438 48.359375 L 88.285156 46.125 C 88.964844 41.996094 88.964844 41.996094 90.125 39.949219 C 91.074219 39.253906 92.027344 38.570312 93.03125 37.960938 C 94.640625 36.949219 96.144531 35.839844 97.660156 34.691406 L 99.269531 33.488281 C 100.710938 32.324219 100.710938 32.324219 101.394531 30.730469 L 102.042969 29.433594 C 103.4375 28.949219 104.839844 28.484375 106.246094 28.035156 L 106.949219 25.929688 C 109.816406 24.664062 112.246094 24.382812 115.359375 24.53125 "/><path style=" stroke:none;fill-rule:nonzero;fill:#fefefe;fill-opacity:1;" d="M 559.710938 49.757812 C 605.613281 49.757812 605.613281 49.757812 614.207031 54.40625 C 618.671875 57.125 621.480469 60.203125 624.035156 64.785156 C 626.636719 70.230469 626.75 76.042969 626.292969 81.996094 C 625.425781 87.121094 623.28125 91.3125 619.988281 95.3125 C 617.507812 97.90625 615.261719 99.855469 611.925781 101.226562 L 610.175781 101.621094 C 615.515625 111.835938 621.597656 121.679688 627.945312 131.296875 C 629.097656 133.15625 629.097656 133.15625 629.800781 135.257812 C 623.144531 136.296875 616.015625 137.25 609.472656 135.257812 C 604.34375 131.167969 602.101562 124.339844 599.660156 118.441406 C 598.523438 115.84375 597.300781 113.308594 596.027344 110.773438 L 595.363281 109.066406 C 594.546875 107.175781 594.546875 107.175781 591.953125 105.125 L 578.636719 104.421875 L 578.636719 135.257812 L 559.710938 135.257812 Z M 373.980469 49.757812 L 391.503906 49.757812 C 396.042969 55.082031 396.042969 55.082031 397.039062 57.636719 C 398.554688 61.210938 400.550781 64.34375 402.671875 67.585938 C 403.378906 68.703125 404.082031 69.816406 404.78125 70.933594 C 406.222656 73.207031 407.6875 75.460938 409.167969 77.707031 L 410.253906 79.359375 C 410.9375 80.394531 411.625 81.425781 412.316406 82.457031 C 413.125 83.683594 413.882812 84.941406 414.632812 86.203125 L 414.632812 88.304688 L 416.03125 88.304688 C 416.21875 87.808594 416.402344 87.316406 416.59375 86.804688 C 419.90625 78.902344 425.105469 71.609375 429.667969 64.390625 L 430.972656 62.324219 L 432.328125 60.28125 C 433.640625 58.195312 433.640625 58.195312 434.308594 55.777344 C 435.152344 53.441406 435.152344 53.441406 438.460938 49.757812 L 457.382812 49.757812 L 457.382812 135.257812 L 439.863281 135.257812 C 439.148438 126.660156 439.054688 118.113281 439.070312 109.484375 C 439.074219 107.140625 439.070312 104.792969 439.066406 102.449219 C 439.0625 95.136719 439.070312 87.875 439.863281 80.59375 L 438.460938 80.59375 L 438.230469 81.789062 C 437.683594 83.660156 436.867188 85.050781 435.839844 86.707031 L 434.636719 88.664062 L 433.335938 90.757812 C 432.441406 92.210938 431.546875 93.664062 430.65625 95.117188 L 429.285156 97.339844 C 427.273438 100.625 425.28125 103.917969 423.304688 107.226562 L 422.277344 108.9375 C 420.390625 112.082031 418.542969 115.25 416.734375 118.441406 L 414.632812 117.738281 C 413.417969 115.980469 412.265625 114.183594 411.171875 112.351562 C 408.386719 107.8125 405.515625 103.332031 402.550781 98.910156 L 401.585938 97.476562 C 400.300781 95.558594 399.007812 93.644531 397.714844 91.730469 C 396.800781 90.378906 395.886719 89.023438 394.972656 87.667969 L 394.125 86.421875 C 393.460938 85.429688 392.828125 84.417969 392.203125 83.398438 L 392.203125 81.996094 L 390.800781 81.996094 L 390.800781 135.257812 L 373.980469 135.257812 Z M 823.941406 49.757812 L 838.660156 49.757812 C 842.59375 54.480469 842.59375 54.480469 843.96875 56.25 L 844.890625 57.429688 L 845.84375 58.652344 C 848.207031 61.671875 850.589844 64.667969 853.027344 67.628906 C 855.761719 70.953125 858.429688 74.324219 861.078125 77.710938 C 862.902344 80.042969 864.746094 82.363281 866.605469 84.667969 C 869.238281 87.957031 871.828125 91.277344 874.402344 94.613281 L 875.65625 96.214844 L 876.8125 97.722656 L 877.863281 99.078125 L 878.609375 100.21875 L 878.609375 101.621094 L 880.011719 101.621094 L 880.011719 49.757812 L 898.234375 49.757812 C 898.851562 69.925781 898.996094 90.074219 898.980469 110.25 L 898.976562 112.121094 C 898.96875 119.835938 898.953125 127.546875 898.933594 135.257812 C 896.699219 135.402344 894.46875 135.488281 892.234375 135.566406 L 890.332031 135.691406 C 888.414062 135.738281 886.785156 135.691406 884.917969 135.257812 C 882.917969 133.882812 881.484375 132.265625 880.011719 130.355469 L 878.777344 128.847656 L 877.894531 127.597656 C 875.75 124.648438 873.453125 121.851562 871.117188 119.054688 C 868.074219 115.382812 865.066406 111.691406 862.136719 107.925781 C 859.234375 104.195312 856.257812 100.535156 853.246094 96.890625 L 851.984375 95.359375 C 849.738281 92.640625 849.738281 92.640625 847.492188 89.921875 C 846.675781 88.933594 845.863281 87.941406 845.054688 86.945312 L 843.746094 85.351562 L 842.863281 84.097656 L 842.863281 82.699219 L 841.464844 82.699219 L 841.808594 84.148438 C 842.210938 86.476562 842.253906 88.660156 842.253906 91.027344 L 842.257812 92.453125 C 842.261719 94.003906 842.261719 95.550781 842.257812 97.097656 C 842.257812 98.175781 842.257812 99.253906 842.257812 100.328125 C 842.261719 102.582031 842.257812 104.835938 842.253906 107.085938 C 842.253906 109.980469 842.253906 112.875 842.257812 115.765625 C 842.257812 117.988281 842.257812 120.210938 842.257812 122.433594 C 842.257812 123.5 842.257812 124.566406 842.257812 125.636719 C 842.261719 127.121094 842.257812 128.609375 842.253906 130.09375 L 842.253906 132.660156 L 842.164062 134.558594 L 841.464844 135.257812 L 823.941406 135.257812 Z M 823.941406 49.757812 "/><path style=" stroke:none;fill-rule:nonzero;fill:#3a251b;fill-opacity:1;" d="M 115.359375 24.53125 L 116.058594 25.929688 C 117.679688 26.3125 117.679688 26.3125 119.609375 26.542969 C 125.949219 27.621094 129.945312 30.402344 134.910156 34.410156 C 136.382812 35.742188 136.382812 35.742188 137.785156 37.84375 C 139.523438 38.558594 139.523438 38.558594 141.511719 39.117188 C 144.042969 39.988281 145.957031 40.703125 147.773438 42.707031 L 149 44.851562 C 148.957031 46.738281 148.957031 46.738281 148.300781 48.359375 L 146.898438 50.460938 C 146.195312 54.148438 146.195312 54.148438 146.632812 57.800781 C 146.898438 59.570312 146.898438 59.570312 146.273438 61.195312 L 145.320312 62.769531 L 144.390625 64.347656 C 143.417969 65.84375 142.363281 67.253906 141.292969 68.679688 C 140.621094 69.832031 139.960938 70.988281 139.304688 72.148438 C 138.359375 73.8125 137.375 75.453125 136.386719 77.089844 C 135.128906 79.164062 133.902344 81.25 132.707031 83.355469 C 131.878906 84.800781 131 86.21875 130.078125 87.601562 C 128.757812 87.789062 128.757812 87.789062 127.183594 87.777344 C 125.082031 87.933594 123.96875 88.171875 122.207031 89.359375 C 121.261719 90.203125 120.339844 91.070312 119.441406 91.957031 C 117.675781 93.6875 116.148438 95.066406 113.753906 95.808594 L 112.019531 96.132812 C 111.394531 96.25 110.769531 96.371094 110.128906 96.492188 L 108.175781 96.84375 L 106.1875 97.222656 C 104.574219 97.527344 102.957031 97.824219 101.339844 98.117188 L 101.339844 99.515625 C 96.132812 101.820312 96.132812 101.820312 93.632812 102.320312 L 93.804688 103.898438 L 93.632812 105.824219 L 92.445312 106.964844 C 90.195312 109.277344 88.777344 111.925781 87.191406 114.71875 C 86.570312 115.800781 85.945312 116.882812 85.324219 117.964844 L 84.496094 119.414062 C 83.820312 120.542969 83.820312 120.542969 83.117188 121.242188 C 81.246094 121.339844 79.386719 121.273438 77.511719 121.242188 C 76.671875 119.5625 76.730469 118.515625 76.742188 116.636719 L 76.746094 114.925781 L 76.765625 112.746094 L 76.808594 105.824219 L 91.527344 105.125 L 76.808594 104.421875 C 76.089844 102.261719 76.015625 100.730469 76.023438 98.464844 L 76.015625 96.429688 C 76.109375 94.613281 76.109375 94.613281 76.808594 92.507812 C 76.859375 91.480469 76.871094 90.445312 76.855469 89.414062 L 76.835938 87.625 L 76.808594 85.765625 C 76.792969 84.542969 76.777344 83.320312 76.765625 82.101562 L 76.742188 80.460938 L 76.808594 79.195312 L 77.511719 78.492188 C 79.429688 78.429688 81.332031 78.414062 83.25 78.425781 L 84.992188 78.425781 C 86.835938 78.429688 88.679688 78.441406 90.519531 78.449219 C 91.765625 78.453125 93.011719 78.457031 94.257812 78.457031 C 97.320312 78.464844 100.382812 78.476562 103.441406 78.492188 L 103.441406 77.089844 L 101.472656 77.265625 L 99.238281 77.089844 C 97.96875 75.996094 97.96875 75.996094 97.136719 74.289062 C 96.652344 71.660156 96.652344 71.660156 96.433594 69.382812 L 95.03125 69.382812 L 95.03125 67.980469 L 76.808594 67.28125 L 76.808594 51.863281 L 82.417969 51.160156 L 82.417969 50.460938 L 86.621094 49.757812 L 86.621094 48.359375 L 88.023438 48.359375 L 88.285156 46.125 C 88.964844 41.996094 88.964844 41.996094 90.125 39.949219 C 91.074219 39.253906 92.027344 38.570312 93.03125 37.960938 C 94.640625 36.949219 96.144531 35.839844 97.660156 34.691406 L 99.269531 33.488281 C 100.710938 32.324219 100.710938 32.324219 101.394531 30.730469 L 102.042969 29.433594 C 103.4375 28.949219 104.839844 28.484375 106.246094 28.035156 L 106.949219 25.929688 C 109.816406 24.664062 112.246094 24.382812 115.359375 24.53125 "/><path style=" stroke:none;fill-rule:nonzero;fill:#fefefe;fill-opacity:1;" d="M 714.925781 53.066406 C 716.679688 53.949219 717.613281 54.535156 718.808594 56.066406 C 718.984375 57.65625 718.984375 57.65625 718.863281 59.492188 L 718.746094 61.484375 L 718.589844 63.558594 L 718.460938 65.65625 C 718.355469 67.363281 718.234375 69.074219 718.109375 70.785156 L 715.136719 69.796875 L 713.464844 69.242188 C 711.941406 68.722656 710.421875 68.1875 708.910156 67.628906 C 699.886719 64.679688 690.410156 63.320312 680.976562 64.804688 C 675.988281 66.105469 671.960938 68.734375 668.207031 72.210938 C 664.234375 76.371094 662.253906 80.597656 660.8125 86.113281 C 660.285156 92.714844 660.394531 98.851562 662.742188 105.125 C 665.160156 109.902344 668.054688 114.050781 672.550781 117.039062 C 677.394531 119.925781 682 121.316406 687.664062 121.460938 C 692.929688 121.398438 697.574219 120.394531 702.691406 119.140625 L 702.691406 101.621094 L 686.570312 100.917969 C 685.933594 97.738281 685.765625 94.847656 685.78125 91.632812 L 685.773438 90.078125 C 685.777344 88.785156 685.820312 87.492188 685.867188 86.203125 L 686.570312 85.5 C 687.625 85.441406 688.679688 85.414062 689.738281 85.421875 L 691.808594 85.421875 L 693.996094 85.433594 L 696 85.433594 C 698.476562 85.4375 700.957031 85.449219 703.433594 85.457031 L 720.210938 85.5 L 720.210938 129.652344 C 713.113281 132.808594 713.113281 132.808594 710.523438 133.472656 L 708.820312 133.914062 L 707.113281 134.339844 L 705.382812 134.789062 C 695.605469 137.296875 684.292969 138.324219 674.402344 135.871094 C 665.40625 133.179688 658.121094 128.632812 651.527344 121.945312 C 649.941406 120.167969 648.59375 118.347656 647.320312 116.335938 L 646.386719 114.898438 C 642.515625 108.136719 640.9375 99.367188 640.707031 91.632812 C 641.101562 82.785156 643.257812 74.78125 648.023438 67.28125 C 653.089844 60.238281 659.769531 55.277344 667.585938 51.601562 C 682.476562 45.746094 700.269531 47.277344 714.929688 53.066406 "/><path style=" stroke:none;fill-rule:nonzero;fill:#fdfdfd;fill-opacity:1;" d="M 292.679688 49.757812 L 352.253906 49.757812 L 352.253906 65.175781 C 350.421875 66.09375 349.078125 65.960938 347.023438 65.957031 L 344.601562 65.957031 L 341.976562 65.945312 L 339.292969 65.941406 C 336.941406 65.941406 334.589844 65.933594 332.238281 65.925781 C 329.835938 65.917969 327.433594 65.914062 325.035156 65.914062 C 320.324219 65.90625 315.613281 65.890625 310.902344 65.878906 L 310.902344 84.097656 L 345.246094 84.097656 L 345.246094 99.515625 L 310.902344 99.515625 L 310.902344 119.839844 L 352.953125 119.839844 L 352.953125 135.257812 L 292.679688 135.257812 Z M 292.679688 49.757812 "/><path style=" stroke:none;fill-rule:nonzero;fill:#fefefe;fill-opacity:1;" d="M 479.8125 49.757812 L 538.6875 49.757812 L 538.6875 65.175781 L 498.734375 65.175781 L 498.734375 84.097656 L 532.378906 84.097656 L 532.378906 99.515625 L 498.734375 99.515625 L 498.734375 119.839844 L 539.386719 119.839844 L 539.386719 135.257812 L 479.8125 135.257812 Z M 742.640625 49.757812 L 801.511719 49.757812 L 801.511719 65.175781 L 760.863281 65.878906 L 760.863281 84.097656 L 795.90625 84.097656 L 795.90625 99.515625 L 760.863281 99.515625 L 760.863281 119.839844 L 802.914062 119.839844 L 802.914062 135.257812 L 742.640625 135.257812 Z M 914.355469 49.757812 L 985.84375 49.757812 L 985.84375 65.175781 L 959.210938 65.878906 L 959.210938 135.257812 L 940.988281 135.257812 L 940.285156 65.878906 L 915.054688 65.175781 L 914.355469 64.476562 Z M 914.355469 49.757812 "/><path style=" stroke:none;fill-rule:nonzero;fill:#704330;fill-opacity:1;" d="M 141.992188 51.863281 C 139.925781 53.949219 137.90625 55.925781 135.550781 57.6875 L 134.121094 58.773438 L 132.878906 59.570312 L 131.476562 59.570312 L 131.785156 60.796875 C 132.042969 61.828125 132.277344 62.863281 132.484375 63.90625 L 132.878906 65.175781 L 134.28125 65.878906 C 133.566406 69.136719 132.75 71.5 130.464844 74.050781 C 128.878906 75.417969 127.144531 76.203125 125.214844 76.984375 C 123.617188 77.78125 123.617188 77.78125 122.152344 79.484375 C 119.988281 81.5625 118.039062 82.480469 115.269531 83.617188 L 113.953125 84.179688 C 111.96875 85 110.515625 85.5 108.347656 85.5 L 109.050781 82.699219 L 106.246094 82.699219 L 105.765625 84.097656 C 105.003906 85.84375 104.144531 87.539062 103.179688 89.179688 L 102.332031 90.636719 C 101.339844 91.808594 101.339844 91.808594 100.191406 92.226562 C 97.949219 92.609375 95.785156 92.585938 93.511719 92.578125 L 92.0625 92.574219 C 90.539062 92.570312 89.019531 92.5625 87.5 92.554688 L 84.394531 92.542969 C 81.867188 92.535156 79.339844 92.523438 76.808594 92.507812 C 76.789062 90.304688 76.777344 88.097656 76.765625 85.894531 L 76.75 83.988281 L 76.742188 82.175781 L 76.730469 80.496094 L 76.808594 79.195312 L 77.511719 78.492188 C 79.429688 78.429688 81.332031 78.414062 83.25 78.425781 L 84.992188 78.425781 C 86.835938 78.429688 88.679688 78.441406 90.519531 78.449219 C 91.765625 78.453125 93.011719 78.457031 94.257812 78.457031 C 97.320312 78.464844 100.382812 78.476562 103.441406 78.492188 L 103.441406 77.089844 L 101.472656 77.265625 L 99.238281 77.089844 C 97.96875 75.996094 97.96875 75.996094 97.136719 74.289062 C 96.652344 71.660156 96.652344 71.660156 96.433594 69.382812 L 95.03125 69.382812 L 95.03125 67.980469 L 76.808594 67.28125 L 76.808594 51.863281 C 83.757812 51.753906 90.703125 51.648438 97.648438 51.550781 C 100.875 51.503906 104.101562 51.457031 107.328125 51.40625 C 110.449219 51.359375 113.574219 51.3125 116.695312 51.269531 C 117.875 51.253906 119.058594 51.234375 120.242188 51.214844 C 127.535156 51.097656 134.71875 51.246094 141.992188 51.863281 "/><path style=" stroke:none;fill-rule:nonzero;fill:#fefefe;fill-opacity:1;" d="M 166.523438 168.199219 C 168.804688 167.945312 168.804688 167.945312 171.429688 168.199219 C 173.21875 169.613281 173.21875 169.613281 174.84375 171.570312 L 176.65625 173.707031 C 177.253906 174.441406 177.84375 175.171875 178.4375 175.90625 L 180.042969 177.863281 C 181.078125 179.136719 182.113281 180.410156 183.144531 181.6875 C 184.792969 183.671875 186.503906 185.574219 188.25 187.46875 C 197.597656 197.652344 197.597656 197.652344 199.464844 201.835938 L 200.863281 201.835938 L 200.164062 199.734375 C 200.105469 198.691406 200.078125 197.648438 200.082031 196.601562 L 200.082031 194.6875 L 200.09375 192.628906 L 200.097656 190.519531 C 200.101562 188.289062 200.109375 186.0625 200.121094 183.835938 C 200.125 182.324219 200.128906 180.816406 200.128906 179.304688 C 200.136719 175.601562 200.148438 171.898438 200.164062 168.199219 L 207.875 168.199219 L 207.875 216.554688 L 203.667969 216.554688 C 199.9375 214.148438 197.460938 210.671875 194.714844 207.230469 C 193.460938 205.703125 192.125 204.257812 190.703125 202.886719 C 188.113281 200.382812 185.894531 197.628906 183.640625 194.824219 C 182.4375 193.335938 181.21875 191.867188 179.980469 190.410156 L 179 189.257812 C 178.082031 188.175781 177.164062 187.097656 176.242188 186.023438 L 174.933594 184.316406 L 174.933594 182.914062 L 173.53125 182.914062 L 174.230469 184.316406 C 174.292969 185.332031 174.3125 186.351562 174.3125 187.371094 L 174.3125 189.285156 L 174.300781 191.351562 L 174.296875 193.46875 C 174.292969 195.703125 174.285156 197.9375 174.277344 200.171875 C 174.273438 201.6875 174.269531 203.199219 174.265625 204.710938 C 174.257812 208.425781 174.246094 212.140625 174.230469 215.855469 L 165.820312 215.855469 C 165.804688 209.742188 165.792969 203.632812 165.785156 197.523438 C 165.78125 194.6875 165.777344 191.851562 165.769531 189.011719 C 165.761719 186.277344 165.757812 183.542969 165.753906 180.804688 C 165.753906 179.761719 165.75 178.714844 165.746094 177.667969 C 165.742188 176.207031 165.742188 174.75 165.742188 173.289062 L 165.738281 170.765625 L 165.820312 168.898438 Z M 166.523438 168.199219 "/><path style=" stroke:none;fill-rule:nonzero;fill:#fdfdfd;fill-opacity:1;" d="M 709.699219 168.199219 C 711.890625 167.914062 711.890625 167.914062 714.605469 168.199219 C 716.316406 169.472656 717.519531 171.066406 718.808594 172.753906 L 721.023438 175.492188 L 722.074219 176.828125 C 723.152344 178.179688 724.273438 179.480469 725.425781 180.769531 L 727.921875 183.617188 L 728.933594 184.769531 C 730.113281 186.121094 731.296875 187.472656 732.476562 188.828125 L 733.613281 190.121094 C 736.53125 193.476562 739.199219 196.910156 741.9375 200.4375 L 742.640625 168.199219 L 751.75 168.199219 C 751.765625 174.398438 751.777344 180.601562 751.789062 186.800781 C 751.789062 189.679688 751.796875 192.5625 751.804688 195.441406 C 751.8125 198.214844 751.816406 200.992188 751.816406 203.769531 C 751.820312 204.832031 751.820312 205.890625 751.824219 206.953125 C 751.828125 208.4375 751.832031 209.917969 751.832031 211.398438 L 751.835938 213.960938 L 751.75 215.855469 L 751.050781 216.554688 C 748.855469 216.890625 747.546875 217.070312 745.441406 216.554688 C 744.210938 215.417969 743.429688 214.1875 742.515625 212.777344 C 740.894531 210.453125 739.019531 208.453125 737.078125 206.394531 L 734.847656 204.003906 L 733.785156 202.867188 C 730.378906 199.203125 727.171875 195.359375 723.933594 191.542969 L 722.949219 190.382812 C 722.035156 189.296875 721.121094 188.210938 720.210938 187.121094 L 718.578125 185.179688 L 717.410156 183.617188 L 717.410156 182.214844 L 716.007812 182.214844 L 716.707031 215.855469 L 708.996094 215.855469 C 708.980469 209.949219 708.96875 204.046875 708.960938 198.144531 C 708.957031 195.402344 708.953125 192.664062 708.945312 189.921875 C 708.9375 187.277344 708.933594 184.632812 708.929688 181.988281 C 708.929688 180.976562 708.925781 179.96875 708.925781 178.960938 C 708.917969 177.546875 708.917969 176.132812 708.917969 174.71875 L 708.914062 172.28125 C 708.996094 170.300781 708.996094 170.300781 709.699219 168.199219 "/><path style=" stroke:none;fill-rule:nonzero;fill:#fefefe;fill-opacity:1;" d="M 599.835938 170.039062 L 601.765625 171 L 601.765625 177.308594 L 599.476562 176.695312 C 592.617188 174.921875 585.988281 173.417969 578.898438 174.886719 C 576.527344 175.589844 574.582031 176.515625 572.460938 177.789062 C 570.125 180.257812 568.71875 183.113281 567.707031 186.34375 C 566.867188 190.699219 566.976562 195.398438 568.253906 199.648438 C 569.394531 202.539062 570.707031 204.621094 573.027344 206.742188 C 576 208.523438 578.839844 209.441406 582.296875 209.742188 C 586.722656 209.789062 591.074219 209.441406 595.457031 208.84375 L 595.457031 196.230469 L 583.542969 196.230469 L 582.839844 192.027344 L 584.242188 190.625 C 586.140625 190.464844 586.140625 190.464844 588.519531 190.488281 L 590.835938 190.5 L 593.792969 190.535156 L 603.164062 190.625 L 603.164062 213.050781 C 594.101562 216.675781 586.175781 217.375 576.53125 216.554688 C 573.4375 215.957031 570.785156 214.730469 568.121094 213.050781 L 566.839844 212.257812 C 563.261719 209.660156 560.964844 205.570312 558.90625 201.738281 C 558 198.691406 558.050781 195.714844 558.046875 192.550781 L 557.996094 190.632812 C 557.976562 186.074219 558.855469 182.671875 561.113281 178.710938 C 563.824219 174.660156 567.296875 171.785156 571.625 169.597656 C 580.003906 166.109375 591.539062 166.5 599.835938 170.039062 "/><path style=" stroke:none;fill-rule:nonzero;fill:#fdfcfc;fill-opacity:1;" d="M 861.085938 168.199219 L 895.429688 168.199219 L 895.429688 174.503906 L 870.199219 174.503906 L 870.199219 187.820312 L 874.925781 187.796875 L 879.441406 187.78125 C 880.492188 187.777344 881.539062 187.773438 882.589844 187.769531 C 884.09375 187.757812 885.601562 187.753906 887.105469 187.753906 L 889.851562 187.742188 L 891.925781 187.820312 L 892.625 188.523438 L 892.625 194.128906 L 870.898438 194.828125 L 870.199219 208.84375 L 895.429688 208.84375 L 895.429688 215.855469 L 861.085938 215.855469 Z M 861.085938 168.199219 "/><path style=" stroke:none;fill-rule:nonzero;fill:#fefefe;fill-opacity:1;" d="M 313.003906 168.199219 L 347.347656 168.199219 L 347.347656 174.503906 L 322.117188 174.503906 L 322.117188 187.820312 L 343.84375 187.820312 L 343.84375 194.128906 L 322.816406 194.828125 L 322.117188 208.84375 L 347.347656 208.84375 L 347.347656 215.855469 L 313.003906 215.855469 Z M 639.613281 168.199219 L 673.953125 168.199219 L 673.953125 173.804688 L 673.253906 174.503906 C 671.386719 174.566406 669.535156 174.585938 667.664062 174.574219 L 665.972656 174.570312 C 664.179688 174.566406 662.386719 174.558594 660.59375 174.550781 C 659.382812 174.546875 658.167969 174.542969 656.957031 174.539062 C 653.976562 174.53125 651 174.519531 648.023438 174.503906 L 648.023438 187.820312 L 652.75 187.796875 L 657.265625 187.78125 C 658.316406 187.777344 659.363281 187.773438 660.414062 187.769531 C 661.917969 187.757812 663.421875 187.753906 664.925781 187.753906 L 667.675781 187.742188 L 669.75 187.820312 L 670.449219 188.523438 L 670.449219 194.128906 L 648.023438 194.828125 L 648.023438 208.84375 L 673.253906 208.84375 L 673.953125 215.855469 L 639.613281 215.855469 Z M 141.992188 51.863281 C 138.726562 55.171875 135.34375 57.707031 131.476562 60.269531 L 129.8125 61.421875 C 124.511719 64.878906 118.917969 66.984375 112.585938 67.425781 C 106.765625 67.628906 100.945312 67.535156 95.121094 67.453125 C 93.339844 67.441406 91.5625 67.429688 89.785156 67.417969 C 85.457031 67.386719 81.132812 67.335938 76.808594 67.28125 L 76.808594 51.863281 C 83.757812 51.753906 90.703125 51.648438 97.648438 51.550781 C 100.875 51.503906 104.101562 51.457031 107.328125 51.40625 C 110.449219 51.359375 113.574219 51.3125 116.695312 51.269531 C 117.875 51.253906 119.058594 51.234375 120.242188 51.214844 C 127.535156 51.097656 134.71875 51.246094 141.992188 51.863281 "/><path style=" stroke:none;fill-rule:nonzero;fill:#b9b5b1;fill-opacity:1;" d="M 181.242188 105.824219 L 228.898438 105.824219 L 228.898438 119.839844 L 228.199219 120.542969 C 226.742188 120.613281 225.28125 120.632812 223.820312 120.632812 L 222.433594 120.636719 C 220.917969 120.636719 219.398438 120.636719 217.882812 120.636719 L 214.730469 120.636719 C 212.527344 120.636719 210.324219 120.636719 208.121094 120.632812 C 205.289062 120.628906 202.460938 120.632812 199.628906 120.636719 C 197.460938 120.636719 195.289062 120.636719 193.121094 120.636719 C 192.078125 120.636719 191.03125 120.636719 189.988281 120.636719 C 188.53125 120.640625 187.078125 120.636719 185.621094 120.632812 L 183.101562 120.632812 L 181.242188 120.542969 L 180.539062 119.839844 C 180.46875 117.746094 180.441406 115.671875 180.453125 113.578125 L 180.445312 111.800781 L 180.445312 110.097656 L 180.449219 108.53125 C 180.539062 107.226562 180.539062 107.226562 181.242188 105.824219 "/><path style=" stroke:none;fill-rule:nonzero;fill:#fefefe;fill-opacity:1;" d="M 810.84375 167.933594 L 812.957031 167.882812 C 817.703125 167.863281 821.183594 168.699219 825.34375 171 L 825.34375 176.609375 L 824.085938 176.324219 L 822.40625 175.949219 L 820.757812 175.582031 L 819.035156 175.207031 C 818.472656 175.078125 817.910156 174.949219 817.328125 174.820312 C 813.527344 174.15625 809.371094 173.953125 805.605469 174.878906 C 802.960938 175.949219 800.746094 177.429688 798.710938 179.410156 C 795.964844 183.492188 794.8125 187.300781 794.242188 192.15625 C 794.722656 197.046875 796.164062 202.488281 798.710938 206.742188 C 800.25 207.558594 800.25 207.558594 802.214844 208.144531 L 803.445312 208.695312 C 806.671875 210.097656 809.5 210.5625 813.015625 210.457031 C 815.527344 210.167969 817.824219 209.488281 820.210938 208.671875 C 821.90625 208.121094 823.589844 207.761719 825.34375 207.445312 L 826.042969 213.050781 C 821.339844 216.117188 816.945312 217.078125 811.371094 217.429688 C 806.195312 217.261719 801.046875 216.429688 796.496094 213.878906 C 792.863281 211.550781 790.375 209.332031 788.328125 205.472656 C 786.195312 200.78125 785.078125 196.113281 785.214844 190.945312 C 785.671875 186.519531 786.675781 182.316406 788.808594 178.402344 C 792.113281 174.421875 795.710938 170.9375 800.472656 168.8125 C 803.941406 167.9375 807.28125 167.941406 810.84375 167.933594 "/><path style=" stroke:none;fill-rule:nonzero;fill:#a29f9e;fill-opacity:1;" d="M 174.933594 51.160156 L 228.199219 51.160156 L 228.199219 64.476562 L 227.496094 65.175781 C 226.167969 65.246094 224.835938 65.265625 223.503906 65.269531 L 220.917969 65.273438 L 218.101562 65.269531 L 215.234375 65.273438 C 213.230469 65.273438 211.222656 65.273438 209.21875 65.269531 C 206.640625 65.265625 204.066406 65.265625 201.488281 65.269531 C 199.515625 65.273438 197.539062 65.273438 195.566406 65.269531 C 194.613281 65.269531 193.664062 65.273438 192.714844 65.273438 C 191.390625 65.273438 190.0625 65.273438 188.738281 65.269531 L 186.445312 65.265625 L 184.746094 65.175781 L 184.042969 64.476562 C 182.410156 64.21875 180.777344 63.984375 179.136719 63.777344 L 179.164062 62.542969 C 179.199219 59.347656 178.988281 56.421875 178.4375 53.261719 L 179.136719 52.5625 L 174.933594 51.863281 Z M 174.933594 51.160156 "/><path style=" stroke:none;fill-rule:nonzero;fill:#281a13;fill-opacity:1;" d="M 74.007812 66.578125 L 96.433594 67.28125 L 95.03125 67.980469 L 95.03125 69.382812 L 96.433594 69.382812 L 97.324219 73.625 L 97.835938 74.988281 C 99.882812 76.351562 101.078125 76.707031 103.441406 77.089844 L 103.441406 78.492188 L 77.511719 79.195312 C 77.539062 83.742188 77.539062 83.742188 77.574219 88.292969 L 77.578125 90.007812 L 77.589844 91.765625 C 77.511719 93.210938 77.511719 93.210938 76.808594 94.613281 C 76.648438 95.921875 76.523438 97.238281 76.417969 98.554688 L 76.238281 100.683594 L 76.109375 102.320312 L 77.511719 103.023438 L 76.808594 104.421875 L 92.230469 104.421875 L 91.527344 105.824219 C 88.59375 105.964844 85.660156 106.09375 82.722656 106.21875 L 80.214844 106.339844 C 71.269531 106.714844 71.269531 106.714844 68.398438 105.824219 C 66.910156 104.078125 65.769531 102.5625 65.34375 100.265625 C 65.25 98.722656 65.246094 97.203125 65.273438 95.660156 C 65.273438 95.097656 65.273438 94.539062 65.273438 93.960938 C 65.28125 92.777344 65.289062 91.597656 65.308594 90.417969 C 65.332031 88.613281 65.335938 86.8125 65.335938 85.007812 C 65.34375 83.859375 65.351562 82.707031 65.359375 81.554688 L 65.367188 79.933594 C 65.417969 77.070312 65.59375 74.710938 66.996094 72.183594 C 68.835938 71.265625 68.835938 71.265625 70.503906 70.785156 L 70.503906 69.382812 L 69.101562 68.679688 L 74.007812 67.28125 Z M 74.007812 66.578125 "/><path style=" stroke:none;fill-rule:nonzero;fill:#0b0b0b;fill-opacity:1;" d="M 578.636719 65.175781 L 586.390625 65.132812 L 588.804688 65.113281 C 596.429688 65.09375 596.429688 65.09375 599.660156 65.878906 C 601.496094 67.125 601.496094 67.125 603.078125 68.636719 L 604.695312 70.144531 C 605.96875 71.484375 605.96875 71.484375 606.671875 72.886719 C 606.925781 75.941406 606.9375 78.941406 606.671875 81.996094 C 605.46875 84.535156 604.234375 85.84375 602.246094 87.777344 C 599.410156 89.625 596.828125 90.328125 593.480469 90.515625 C 591.230469 90.542969 588.988281 90.527344 586.738281 90.496094 L 578.636719 90.40625 Z M 578.636719 65.175781 "/><path style=" stroke:none;fill-rule:nonzero;fill:#fefefe;fill-opacity:1;" d="M 240.816406 168.199219 L 281.464844 168.199219 L 281.464844 174.503906 L 266.046875 175.207031 L 266.046875 215.855469 L 256.933594 215.855469 L 256.234375 215.152344 C 256.167969 213.933594 256.140625 212.714844 256.144531 211.492188 L 256.136719 209.125 L 256.140625 206.550781 L 256.136719 203.921875 C 256.136719 201.613281 256.140625 199.304688 256.144531 196.992188 C 256.144531 195.578125 256.144531 194.160156 256.144531 192.742188 C 256.136719 190.03125 256.136719 187.316406 256.140625 184.605469 L 256.136719 182.03125 L 256.144531 179.65625 L 256.144531 177.5625 C 256.234375 175.90625 256.234375 175.90625 256.933594 174.503906 L 240.816406 174.503906 Z M 383.089844 168.199219 L 392.203125 168.199219 L 392.203125 208.84375 L 417.433594 208.84375 L 417.433594 215.855469 C 412.65625 215.871094 407.878906 215.882812 403.101562 215.890625 C 401.472656 215.894531 399.847656 215.902344 398.21875 215.90625 C 395.886719 215.914062 393.554688 215.917969 391.21875 215.921875 L 389 215.933594 L 386.960938 215.933594 L 385.15625 215.9375 L 383.792969 215.855469 L 383.089844 215.152344 C 383.03125 213.691406 383.003906 212.226562 383.011719 210.761719 L 383.011719 209.375 C 383.011719 207.855469 383.019531 206.332031 383.023438 204.8125 L 383.027344 201.65625 C 383.03125 198.886719 383.035156 196.113281 383.042969 193.339844 C 383.050781 190.511719 383.054688 187.683594 383.058594 184.855469 C 383.066406 179.300781 383.078125 173.75 383.089844 168.199219 M 450.375 168.199219 L 458.085938 168.199219 L 458.085938 208.84375 L 482.617188 208.84375 L 483.316406 215.855469 L 450.375 215.855469 Z M 450.375 168.199219 "/><path style=" stroke:none;fill-rule:nonzero;fill:#a29f9e;fill-opacity:1;" d="M 203.644531 77.722656 L 205.839844 77.726562 C 208.136719 77.730469 210.4375 77.738281 212.734375 77.746094 C 214.300781 77.753906 215.863281 77.753906 217.429688 77.757812 C 221.253906 77.765625 225.078125 77.777344 228.898438 77.792969 L 228.898438 91.808594 L 188.949219 92.507812 L 189.652344 90.40625 L 188.25 90.40625 L 188.949219 87.601562 L 190.351562 87.601562 C 190.46875 86.609375 190.585938 85.617188 190.703125 84.625 L 190.898438 82.949219 C 191.09375 81.109375 191.09375 81.109375 191.050781 78.492188 C 195.269531 77.753906 199.367188 77.699219 203.644531 77.722656 "/><path style=" stroke:none;fill-rule:nonzero;fill:#211712;fill-opacity:1;" d="M 117.460938 21.726562 L 117.460938 23.128906 C 118.730469 23.191406 118.730469 23.191406 120.023438 23.257812 L 123.417969 23.433594 L 125.097656 23.519531 C 134.757812 24.03125 134.757812 24.03125 137.15625 25.320312 C 140.089844 28.082031 142.476562 31.050781 144.792969 34.339844 L 145.964844 35.78125 L 146.898438 37.144531 L 146.898438 39.246094 L 148.300781 39.246094 C 150.046875 42.25 151.304688 44.582031 151.367188 48.09375 C 151.191406 51.589844 150.285156 54.328125 148.5625 57.378906 L 147.597656 58.871094 L 146.195312 58.167969 C 145.585938 56.566406 145.484375 55.46875 145.683594 53.761719 L 146.066406 52.125 C 146.183594 51.582031 146.304688 51.035156 146.429688 50.476562 C 146.898438 49.058594 146.898438 49.058594 148.300781 47.65625 C 148.230469 45.90625 148.230469 45.90625 147.597656 44.152344 C 146.546875 42.984375 146.546875 42.984375 145.496094 42.050781 L 145.496094 40.648438 L 143.65625 40.429688 C 141.101562 39.910156 139.320312 39.175781 137.085938 37.84375 C 135.902344 36.691406 134.734375 35.523438 133.582031 34.339844 C 129.933594 31.15625 126.4375 28.460938 121.667969 27.332031 C 119.574219 27.003906 117.472656 26.769531 115.359375 26.632812 L 115.359375 25.230469 C 112.226562 25.082031 109.84375 25.410156 106.949219 26.632812 C 106.230469 27.316406 105.53125 28.019531 104.84375 28.734375 L 103.398438 28.996094 L 102.042969 29.433594 L 101.441406 31.058594 C 100.640625 32.9375 100.640625 32.9375 99.269531 34.257812 L 97.660156 35.4375 L 95.957031 36.722656 C 94.332031 37.84375 94.332031 37.84375 91.964844 39.070312 C 90.015625 40.488281 90.015625 40.488281 89.402344 42.53125 C 88.871094 44.464844 88.410156 46.390625 88.023438 48.359375 L 86.621094 48.359375 L 87.324219 50.460938 L 85.394531 50.765625 C 83.234375 51.082031 83.234375 51.082031 81.671875 51.644531 C 80.316406 51.863281 80.316406 51.863281 78.386719 51.203125 L 76.808594 50.460938 L 78.429688 49.101562 C 79.632812 47.929688 80.253906 47.15625 80.746094 45.539062 L 81.101562 43.976562 C 81.757812 41.726562 82.378906 40.6875 84.0625 39.011719 C 86.050781 37.40625 88.082031 35.871094 90.125 34.339844 C 91.117188 33.507812 92.09375 32.660156 93.0625 31.800781 L 94.417969 30.621094 C 95.304688 29.820312 96.167969 28.992188 97.003906 28.140625 C 100.355469 24.851562 103.636719 23.417969 108.15625 22.179688 C 111.296875 21.558594 114.273438 21.46875 117.460938 21.726562 "/><path style=" stroke:none;fill-rule:nonzero;fill:#d8d1cb;fill-opacity:1;" d="M 146.195312 105.824219 L 181.242188 105.824219 L 181.242188 120.542969 L 148.300781 120.542969 C 147.667969 118.644531 147.515625 117.570312 147.53125 115.628906 L 147.535156 114.019531 L 147.554688 112.351562 L 147.5625 110.65625 C 147.574219 109.28125 147.585938 107.902344 147.597656 106.527344 Z M 156.007812 77.792969 L 195.957031 77.792969 L 195.957031 78.492188 L 191.050781 78.492188 L 191.492188 81.078125 C 191.761719 83.167969 191.742188 84.132812 191.097656 86.203125 L 190.351562 87.601562 L 188.949219 87.601562 L 188.25 90.40625 L 189.652344 90.40625 L 189.652344 91.808594 C 182.863281 92.375 176.089844 92.617188 169.28125 92.683594 L 167.007812 92.730469 C 162.777344 92.75 159.753906 92.425781 156.007812 90.40625 L 156.46875 89.019531 C 158.074219 84.207031 158.074219 84.207031 158.113281 79.195312 Z M 154.882812 50.671875 L 157.582031 50.726562 L 159.039062 50.738281 C 160.570312 50.757812 162.097656 50.804688 163.628906 50.855469 C 164.652344 50.871094 165.675781 50.882812 166.699219 50.894531 C 171.136719 50.960938 175.457031 51.167969 179.839844 51.863281 L 179.445312 53.480469 C 178.976562 55.429688 178.976562 55.429688 179.839844 57.46875 C 179.929688 59.34375 179.871094 61.195312 179.839844 63.074219 L 184.746094 64.476562 L 184.746094 65.175781 C 179.207031 65.859375 173.71875 66.027344 168.140625 66.054688 L 165.628906 66.097656 C 158.84375 66.128906 158.84375 66.128906 155.949219 64.964844 C 153.109375 63.3125 150.980469 61.488281 149 58.871094 L 148.472656 57.074219 C 149.089844 55.078125 150.070312 53.644531 151.429688 52.066406 C 152.503906 51.160156 152.503906 51.160156 154.882812 50.671875 "/><path style=" stroke:none;fill-rule:nonzero;fill:#fdfdfd;fill-opacity:1;" d="M 119.5625 168.199219 L 127.273438 168.199219 L 127.273438 215.855469 C 121.667969 216.554688 121.667969 216.554688 119.5625 215.855469 C 119.007812 213.410156 118.773438 211.15625 118.769531 208.652344 L 118.765625 206.46875 L 118.769531 204.128906 L 118.765625 201.695312 C 118.765625 199.996094 118.769531 198.300781 118.769531 196.601562 C 118.773438 194.019531 118.769531 191.4375 118.765625 188.855469 C 118.765625 187.199219 118.765625 185.546875 118.769531 183.894531 L 118.765625 181.574219 C 118.777344 177.066406 119.042969 172.675781 119.5625 168.199219 "/><path style=" stroke:none;fill-rule:nonzero;fill:#fefefe;fill-opacity:1;" d="M 107.648438 77.792969 L 108.347656 79.894531 C 107.636719 81.898438 106.507812 83.699219 105.457031 85.546875 L 104.625 87.101562 L 103.789062 88.589844 L 103.03125 89.953125 C 102.042969 91.109375 102.042969 91.109375 100.5 91.957031 C 98.074219 92.640625 95.960938 92.667969 93.441406 92.644531 L 91.996094 92.640625 C 90.480469 92.632812 88.96875 92.613281 87.453125 92.597656 C 86.425781 92.589844 85.394531 92.582031 84.363281 92.578125 C 81.84375 92.5625 79.328125 92.539062 76.808594 92.507812 C 76.789062 90.304688 76.777344 88.097656 76.765625 85.894531 L 76.75 83.988281 L 76.742188 82.175781 L 76.730469 80.496094 L 76.808594 79.195312 L 77.511719 78.492188 C 79.378906 78.378906 81.234375 78.3125 83.105469 78.269531 L 84.816406 78.226562 C 86.628906 78.183594 88.445312 78.140625 90.257812 78.097656 L 93.890625 78.007812 C 103.335938 77.773438 103.335938 77.773438 107.648438 77.792969 M 515.558594 168.199219 L 523.265625 168.199219 L 523.265625 215.855469 L 515.558594 215.855469 Z M 515.558594 168.199219 "/><path style=" stroke:none;fill-rule:nonzero;fill:#af6936;fill-opacity:1;" d="M 106.949219 38.546875 C 111.476562 38.109375 114.699219 39.113281 118.839844 40.957031 C 122.125 42.648438 125.042969 44.710938 127.972656 46.957031 L 130.164062 48.53125 L 131.476562 49.757812 L 131.476562 51.863281 L 90.828125 51.863281 C 91.527344 49.757812 91.527344 49.757812 93.105469 47.917969 L 95.03125 46.253906 L 96.628906 45.996094 C 99.1875 45.402344 100.933594 43.992188 102.960938 42.402344 L 104.128906 41.515625 C 105.082031 40.777344 106.023438 40.019531 106.949219 39.246094 Z M 106.949219 38.546875 "/><path style=" stroke:none;fill-rule:nonzero;fill:#a29f9e;fill-opacity:1;" d="M 203.667969 105.824219 L 228.898438 105.824219 L 228.945312 112.789062 L 228.960938 114.988281 L 228.96875 116.707031 L 228.980469 118.476562 L 228.898438 119.839844 L 228.199219 120.542969 C 227 120.597656 225.804688 120.621094 224.605469 120.609375 L 222.40625 120.605469 L 220.09375 120.585938 L 217.773438 120.578125 C 215.875 120.566406 213.976562 120.554688 212.078125 120.542969 L 211.378906 119.140625 L 212.078125 117.738281 L 205.070312 117.039062 C 203.664062 112.90625 203.667969 110.496094 203.667969 105.824219 "/><path style=" stroke:none;fill-rule:nonzero;fill:#281a13;fill-opacity:1;" d="M 129.375 87.601562 C 127.453125 92.832031 124.199219 97.425781 120.789062 101.796875 C 118.941406 104.1875 117.820312 106.503906 116.761719 109.328125 L 114.65625 108.628906 L 115.359375 107.226562 L 114.175781 106.964844 C 112.554688 106.527344 112.554688 106.527344 111.023438 105.648438 C 109.125 104.976562 109.125 104.976562 107.523438 105.503906 C 106.429688 105.882812 105.347656 106.289062 104.273438 106.71875 C 102.742188 107.226562 102.742188 107.226562 99.9375 107.226562 L 99.9375 108.628906 L 94.332031 109.328125 L 92.929688 107.226562 L 94.332031 107.226562 L 92.929688 103.722656 C 94.453125 102.039062 95.867188 101.113281 97.925781 100.175781 C 99.390625 99.527344 99.390625 99.527344 100.640625 98.816406 L 101.339844 97.414062 C 102.59375 97.097656 102.59375 97.097656 104.230469 96.886719 C 111.292969 95.96875 111.292969 95.96875 117.675781 93.078125 C 118.804688 91.980469 119.90625 90.855469 120.980469 89.707031 C 122.371094 88.300781 123.253906 87.71875 125.125 87.164062 C 127.273438 86.902344 127.273438 86.902344 129.375 87.601562 "/><path style=" stroke:none;fill-rule:nonzero;fill:#b9b5b1;fill-opacity:1;" d="M 174.933594 51.160156 C 178.488281 51.125 182.042969 51.101562 185.597656 51.082031 C 186.804688 51.078125 188.015625 51.066406 189.226562 51.054688 C 190.964844 51.039062 192.703125 51.03125 194.4375 51.023438 L 196.078125 51 C 197.441406 51 198.804688 51.074219 200.164062 51.160156 L 202.265625 52.5625 L 200.863281 52.5625 L 199.464844 63.777344 L 208.574219 63.777344 L 208.574219 65.175781 C 205.191406 65.195312 201.8125 65.207031 198.433594 65.214844 C 197.28125 65.21875 196.128906 65.222656 194.980469 65.230469 C 193.328125 65.238281 191.675781 65.242188 190.027344 65.246094 L 188.457031 65.257812 C 187.21875 65.257812 185.980469 65.21875 184.746094 65.175781 L 184.042969 64.476562 C 182.410156 64.21875 180.777344 63.984375 179.136719 63.777344 L 179.164062 62.542969 C 179.199219 59.347656 178.988281 56.421875 178.4375 53.261719 L 179.136719 52.5625 L 174.933594 51.863281 Z M 174.933594 51.160156 "/><path style=" stroke:none;fill-rule:nonzero;fill:#553526;fill-opacity:1;" d="M 138.488281 54.664062 L 139.890625 54.664062 L 139.890625 56.765625 L 141.289062 56.765625 C 141.117188 58.386719 141.117188 58.386719 140.589844 60.269531 C 139.660156 60.976562 138.722656 61.679688 137.785156 62.375 L 137.785156 65.175781 C 135.523438 70.941406 132.191406 76.746094 127.972656 81.296875 C 126.4375 81.78125 126.4375 81.78125 125.171875 81.996094 L 124.601562 83.222656 C 123.558594 85.195312 122.144531 86.238281 120.324219 87.484375 C 117.871094 88.863281 115.257812 89.652344 112.554688 90.40625 L 112.554688 91.808594 C 111.515625 91.726562 110.480469 91.640625 109.445312 91.546875 C 108.867188 91.496094 108.289062 91.449219 107.695312 91.398438 L 106.246094 91.109375 L 105.546875 89.707031 L 102.742188 91.808594 L 101.339844 91.109375 C 102.089844 89.699219 102.847656 88.296875 103.617188 86.902344 L 104.898438 84.539062 L 106.246094 82.699219 L 109.050781 82.699219 L 108.347656 85.5 C 110.5 84.652344 112.648438 83.789062 114.789062 82.917969 L 116.625 82.195312 C 120.199219 80.730469 122.546875 79.316406 125.171875 76.390625 C 126.488281 75.582031 126.488281 75.582031 127.667969 75.03125 C 129.609375 73.984375 130.273438 73.34375 131.742188 71.527344 C 133.214844 68.835938 133.214844 68.835938 133.582031 65.878906 C 132.785156 64.109375 131.835938 62.609375 130.777344 60.972656 C 133.0625 58.503906 135.605469 56.398438 138.488281 54.664062 "/><path style=" stroke:none;fill-rule:nonzero;fill:#3a271b;fill-opacity:1;" d="M 77.511719 67.28125 C 78.914062 67.21875 80.316406 67.203125 81.71875 67.210938 L 84.300781 67.21875 L 87.015625 67.234375 L 89.742188 67.246094 C 91.972656 67.253906 94.203125 67.265625 96.433594 67.28125 L 95.03125 67.980469 L 95.03125 69.382812 L 96.433594 69.382812 L 97.324219 73.625 L 97.835938 74.988281 C 99.882812 76.351562 101.078125 76.707031 103.441406 77.089844 L 103.441406 78.492188 L 76.808594 79.195312 L 76.109375 77.792969 L 78.210938 77.792969 L 77.511719 76.039062 C 76.6875 73.152344 76.65625 70.972656 76.808594 67.980469 Z M 77.511719 67.28125 "/><path style=" stroke:none;fill-rule:nonzero;fill:#b9b5b1;fill-opacity:1;" d="M 200.730469 77.722656 L 203.367188 77.730469 L 206.078125 77.746094 L 208.847656 77.757812 C 211.09375 77.765625 213.335938 77.777344 215.582031 77.792969 L 215.582031 78.492188 L 206.472656 78.492188 L 206.207031 82.480469 C 206.015625 85.414062 205.59375 87.726562 204.367188 90.40625 L 207.875 91.109375 L 207.875 91.808594 L 188.949219 92.507812 L 189.652344 90.40625 L 188.25 90.40625 L 188.949219 87.601562 L 190.351562 87.601562 C 190.46875 86.609375 190.585938 85.617188 190.703125 84.625 L 190.898438 82.949219 C 191.09375 81.109375 191.09375 81.109375 191.050781 78.492188 C 194.3125 77.96875 197.429688 77.707031 200.730469 77.722656 "/><path style=" stroke:none;fill-rule:nonzero;fill:#bf7e48;fill-opacity:1;" d="M 124.46875 63.777344 L 125.871094 64.476562 L 123.945312 65.964844 C 121.757812 67.765625 120.417969 69.824219 118.863281 72.183594 L 116.761719 72.886719 L 116.058594 74.289062 C 114.464844 74.679688 112.867188 74.914062 111.242188 75.160156 L 109.75 75.691406 C 108.824219 77.078125 108.824219 77.078125 108.347656 78.492188 C 106.871094 78.332031 105.398438 78.152344 103.925781 77.96875 L 101.4375 77.671875 C 99.238281 77.089844 99.238281 77.089844 97.925781 75.796875 C 96.835938 73.710938 96.65625 71.707031 96.433594 69.382812 L 95.03125 69.382812 L 95.03125 67.980469 C 96.84375 67.074219 98.1875 67.179688 100.210938 67.15625 C 111.71875 66.988281 111.71875 66.988281 122.828125 64.296875 Z M 124.46875 63.777344 "/><path style=" stroke:none;fill-rule:nonzero;fill:#583627;fill-opacity:1;" d="M 123.769531 36.445312 L 122.367188 37.84375 L 123.878906 38.722656 C 127.925781 41.160156 131.109375 43.519531 134.042969 47.234375 C 134.933594 48.449219 134.933594 48.449219 136.382812 49.058594 L 136.382812 50.460938 L 138.488281 51.160156 L 138.488281 51.863281 C 133.84375 51.949219 133.84375 51.949219 131.476562 51.160156 L 131.476562 49.757812 L 130.253906 49.203125 C 128.578125 48.304688 127.28125 47.261719 125.828125 46.035156 C 121.824219 42.855469 117.386719 40.859375 112.554688 39.246094 C 110.160156 38.953125 110.160156 38.953125 107.648438 39.246094 C 105.824219 40.414062 105.824219 40.414062 104.144531 42.050781 C 103.289062 42.671875 102.429688 43.285156 101.558594 43.890625 C 100.167969 44.859375 99.042969 45.75 97.835938 46.957031 L 94.332031 45.554688 L 94.332031 44.152344 L 95.691406 43.933594 L 97.136719 43.453125 L 97.835938 41.347656 C 98.984375 40.09375 98.984375 40.09375 100.421875 38.808594 L 101.832031 37.511719 C 107.496094 33.761719 117.34375 35.558594 123.769531 36.445312 "/><path style=" stroke:none;fill-rule:nonzero;fill:#fefefe;fill-opacity:1;" d="M 76.808594 105.824219 L 91.527344 105.824219 C 89.953125 110.558594 89.953125 110.558594 88.632812 112.714844 L 87.796875 114.101562 L 86.929688 115.503906 L 86.054688 116.949219 C 83.9375 120.421875 83.9375 120.421875 83.117188 121.242188 C 81.246094 121.339844 79.386719 121.273438 77.511719 121.242188 C 76.671875 119.5625 76.730469 118.515625 76.742188 116.636719 L 76.746094 114.925781 L 76.765625 112.746094 Z M 76.808594 105.824219 "/><path style=" stroke:none;fill-rule:nonzero;fill:#8f5f3c;fill-opacity:1;" d="M 90.125 67.28125 C 91.191406 67.234375 92.257812 67.21875 93.324219 67.234375 L 95.078125 67.253906 L 96.433594 67.28125 L 95.03125 67.980469 L 95.03125 69.382812 L 96.433594 69.382812 L 97.324219 73.625 L 97.835938 74.988281 C 99.882812 76.351562 101.078125 76.707031 103.441406 77.089844 L 103.441406 78.492188 C 101.121094 78.511719 98.800781 78.527344 96.480469 78.535156 L 94.46875 78.554688 L 92.5625 78.5625 L 90.792969 78.574219 L 89.425781 78.492188 L 88.726562 77.792969 C 87.78125 77.632812 86.832031 77.5 85.878906 77.398438 L 83.117188 77.089844 L 83.820312 75.691406 C 85.445312 75.402344 87.082031 75.167969 88.726562 74.988281 L 88.855469 73.480469 L 89.03125 71.527344 L 89.203125 69.582031 L 89.425781 67.980469 Z M 90.125 67.28125 "/><path style=" stroke:none;fill-rule:nonzero;fill:#de9655;fill-opacity:1;" d="M 107.648438 44.152344 C 109.648438 44.730469 111.269531 45.621094 113.082031 46.648438 C 115.152344 47.566406 116.28125 47.808594 118.46875 47.964844 C 121.792969 48.222656 123.804688 49.335938 126.570312 51.160156 L 126.570312 51.863281 L 103.441406 51.863281 L 102.042969 49.058594 C 103.3125 47.335938 104.476562 45.828125 106.203125 44.546875 Z M 107.648438 44.152344 "/><path style=" stroke:none;fill-rule:nonzero;fill:#865133;fill-opacity:1;" d="M 106.949219 38.546875 C 110.621094 38.003906 113.226562 38.644531 116.671875 39.992188 C 120.820312 41.835938 124.378906 44.203125 127.972656 46.957031 L 130.164062 48.53125 L 131.476562 49.757812 L 131.476562 51.863281 C 129.636719 52.097656 128.375 52.183594 126.570312 51.863281 C 123.746094 50.433594 121.085938 48.808594 119.230469 46.207031 C 118.234375 44.761719 118.234375 44.761719 116.621094 44.015625 C 112.960938 42.648438 109.363281 41.496094 105.546875 40.648438 Z M 106.949219 38.546875 "/><path style=" stroke:none;fill-rule:nonzero;fill:#a2633e;fill-opacity:1;" d="M 127.273438 62.375 L 128.675781 62.375 C 129.550781 63.863281 129.550781 63.863281 130.078125 65.878906 C 128.851562 68.199219 128.851562 68.199219 127.273438 70.082031 L 125.871094 70.082031 L 125.171875 71.484375 L 123.113281 72.097656 L 120.964844 72.886719 C 120.199219 74.242188 120.199219 74.242188 119.5625 75.691406 C 117.941406 76.960938 117.941406 76.960938 116.058594 77.792969 C 114.089844 77.574219 114.089844 77.574219 112.554688 77.089844 L 112.554688 79.195312 L 108.347656 78.492188 C 108.851562 77.136719 108.851562 77.136719 109.75 75.691406 C 111.242188 75.183594 111.242188 75.183594 112.949219 74.945312 C 114.625 74.75 114.625 74.75 116.058594 74.289062 L 116.761719 72.183594 L 118.03125 71.617188 C 119.742188 70.84375 119.742188 70.84375 120.835938 68.855469 C 122.617188 66.207031 124.648438 64.195312 127.273438 62.375 "/><path style=" stroke:none;fill-rule:nonzero;fill:#dfa367;fill-opacity:1;" d="M 124.46875 63.777344 L 125.871094 64.476562 C 123.359375 66.230469 121.023438 67.597656 118.160156 68.679688 L 116.058594 70.082031 C 114.429688 70.359375 112.792969 70.597656 111.152344 70.785156 L 111.152344 72.183594 C 109.050781 72.886719 109.050781 72.886719 107.078125 72.59375 L 104.84375 72.054688 L 102.613281 71.542969 C 100.640625 70.785156 100.640625 70.785156 99.324219 69.304688 L 98.539062 67.980469 C 100.160156 67.167969 101.140625 67.183594 102.949219 67.15625 C 109.925781 66.984375 116.0625 66.582031 122.703125 64.296875 Z M 124.46875 63.777344 "/><path style=" stroke:none;fill-rule:nonzero;fill:#865133;fill-opacity:1;" d="M 90.125 67.28125 C 91.191406 67.234375 92.257812 67.21875 93.324219 67.234375 L 95.078125 67.253906 L 96.433594 67.28125 L 95.03125 67.980469 L 95.03125 69.382812 L 96.433594 70.082031 L 92.230469 70.785156 L 92.230469 78.492188 L 88.726562 77.792969 C 87.71875 77.648438 86.710938 77.519531 85.703125 77.398438 L 83.117188 77.089844 L 83.820312 75.691406 C 85.445312 75.402344 87.082031 75.167969 88.726562 74.988281 L 88.855469 73.480469 L 89.03125 71.527344 L 89.203125 69.582031 L 89.425781 67.980469 Z M 90.125 67.28125 "/><path style=" stroke:none;fill-rule:nonzero;fill:#281a13;fill-opacity:1;" d="M 88.726562 40.648438 C 89.164062 41.742188 89.164062 41.742188 89.425781 43.453125 C 89.015625 45.101562 88.550781 46.738281 88.023438 48.359375 L 86.621094 48.359375 L 87.324219 50.460938 L 82.417969 50.460938 C 83.433594 47.804688 84.625 45.28125 85.921875 42.75 L 87.324219 42.75 L 87.324219 41.347656 Z M 88.726562 40.648438 "/><path style=" stroke:none;fill-rule:nonzero;fill:#201712;fill-opacity:1;" d="M 157.410156 68.679688 L 158.8125 68.679688 L 158.8125 70.082031 L 160.214844 70.082031 L 161.617188 74.289062 L 159.511719 74.988281 L 159.511719 76.390625 C 158.34375 76.421875 157.175781 76.417969 156.007812 76.390625 L 155.308594 75.691406 C 155.621094 71.726562 155.621094 71.726562 156.007812 70.082031 Z M 157.410156 68.679688 "/><path style=" stroke:none;fill-rule:nonzero;fill:#543527;fill-opacity:1;" d="M 77.511719 75.691406 L 83.820312 75.691406 L 83.820312 76.390625 L 86.226562 76.652344 L 88.726562 77.089844 L 89.425781 78.492188 L 76.808594 79.195312 L 76.109375 77.792969 L 78.210938 77.792969 Z M 77.511719 75.691406 "/><path style=" stroke:none;fill-rule:nonzero;fill:#c17f49;fill-opacity:1;" d="M 116.761719 48.359375 C 119.035156 48.171875 120.960938 48.046875 123.082031 48.980469 C 124.269531 49.667969 125.425781 50.410156 126.570312 51.160156 L 126.570312 51.863281 C 125.566406 51.898438 124.558594 51.925781 123.550781 51.949219 L 121.851562 52 C 120.265625 51.863281 120.265625 51.863281 118.160156 50.460938 L 118.160156 49.058594 Z M 116.761719 48.359375 "/><path style=" stroke:none;fill-rule:nonzero;fill:#865133;fill-opacity:1;" d="M 95.03125 46.253906 L 97.835938 46.253906 L 97.136719 49.058594 L 93.632812 49.757812 L 94.332031 51.863281 L 90.828125 51.863281 C 91.527344 49.757812 91.527344 49.757812 93.148438 47.875 C 93.769531 47.339844 94.390625 46.804688 95.03125 46.253906 "/><path style=" stroke:none;fill-rule:nonzero;fill:#855032;fill-opacity:1;" d="M 111.855469 76.390625 L 117.460938 77.089844 L 117.460938 79.894531 L 111.855469 80.59375 Z M 111.855469 76.390625 "/><path style=" stroke:none;fill-rule:nonzero;fill:#281a13;fill-opacity:1;" d="M 112.554688 23.828125 L 118.863281 23.828125 L 119.5625 26.632812 L 115.359375 26.632812 L 115.359375 25.230469 Z M 112.554688 23.828125 "/><path style=" stroke:none;fill-rule:nonzero;fill:#563527;fill-opacity:1;" d="M 88.023438 67.28125 L 90.125 67.980469 L 89.425781 72.886719 L 87.324219 72.183594 C 87.292969 70.785156 87.296875 69.382812 87.324219 67.980469 Z M 88.023438 67.28125 "/><path style=" stroke:none;fill-rule:nonzero;fill:#875133;fill-opacity:1;" d="M 125.171875 70.785156 C 124.6875 72.097656 124.6875 72.097656 123.769531 73.585938 C 121.929688 74.464844 121.929688 74.464844 120.265625 74.988281 C 120.441406 73.675781 120.441406 73.675781 120.964844 72.183594 C 122.46875 71.214844 123.375 70.785156 125.171875 70.785156 "/><path style=" stroke:none;fill-rule:nonzero;fill:#db9e63;fill-opacity:1;" d="M 124.46875 63.777344 L 125.871094 64.476562 L 121.667969 67.28125 L 119.5625 65.878906 C 121.179688 65.132812 122.816406 64.429688 124.46875 63.777344 "/></g></svg>