<svg width="48" height="48" viewBox="0 0 48 48" fill="none" xmlns="http://www.w3.org/2000/svg">
  <defs>
    <linearGradient id="primaryGradient" x1="0%" y1="0%" x2="100%" y2="100%">
      <stop offset="0%" style="stop-color:#6366f1;stop-opacity:1" />
      <stop offset="100%" style="stop-color:#8b5cf6;stop-opacity:1" />
    </linearGradient>
    <linearGradient id="accentGradient" x1="0%" y1="0%" x2="100%" y2="100%">
      <stop offset="0%" style="stop-color:#06b6d4;stop-opacity:1" />
      <stop offset="100%" style="stop-color:#3b82f6;stop-opacity:1" />
    </linearGradient>
  </defs>
  
  <!-- Neural network nodes -->
  <circle cx="12" cy="12" r="3" fill="url(#primaryGradient)" opacity="0.8"/>
  <circle cx="36" cy="12" r="3" fill="url(#accentGradient)" opacity="0.8"/>
  <circle cx="12" cy="36" r="3" fill="url(#accentGradient)" opacity="0.8"/>
  <circle cx="36" cy="36" r="3" fill="url(#primaryGradient)" opacity="0.8"/>
  <circle cx="24" cy="24" r="4" fill="url(#primaryGradient)"/>
  
  <!-- Connection lines -->
  <line x1="12" y1="12" x2="24" y2="24" stroke="url(#primaryGradient)" stroke-width="2" opacity="0.6"/>
  <line x1="36" y1="12" x2="24" y2="24" stroke="url(#accentGradient)" stroke-width="2" opacity="0.6"/>
  <line x1="12" y1="36" x2="24" y2="24" stroke="url(#accentGradient)" stroke-width="2" opacity="0.6"/>
  <line x1="36" y1="36" x2="24" y2="24" stroke="url(#primaryGradient)" stroke-width="2" opacity="0.6"/>
  
  <!-- Brain wave pattern -->
  <path d="M6 24 Q12 18 18 24 T30 24 Q36 18 42 24" stroke="url(#primaryGradient)" stroke-width="2" fill="none" opacity="0.7"/>
  
  <!-- Geometric accent -->
  <rect x="20" y="20" width="8" height="8" fill="none" stroke="url(#accentGradient)" stroke-width="1.5" opacity="0.5" transform="rotate(45 24 24)"/>
</svg>